<svg xmlns="http://www.w3.org/2000/svg" viewBox="0 0 512 512" style="enable-background:new 0 0 512 512" xml:space="preserve"><style>.st5{fill:#fbf355}.st6{fill:#eec82f}.st43{fill:#fff}.st52{fill:#638547}.st154{fill:#9bce54}.st274{fill:#8fba4e}.st313{fill:#82a549}.st314{fill:#b6e676}</style><g id="BULINE"><circle id="XMLID_2024_" cx="256" cy="256" r="256" style="fill:#c2e5fb"/></g><g id="Icons"><g id="XMLID_4255_"><circle id="XMLID_4719_" cx="256.3" cy="250.2" r="195.8" style="fill:#a4daf7"/><path id="XMLID_4715_" class="st43" d="M470.2 142.7c-2.1-1.2-4.4-2-7-2.2-.5-.1-1-.1-1.5-.1-2 0-3.9.4-5.7 1-.3-1.5-.7-2.9-1.2-4.3-2.8-7.3-9-13-16.7-14.9-1.9-.5-3.8-.7-5.8-.7h-.2c-.7-5.2-3.8-9.6-8.1-12.1-2.4-1.4-5.2-2.2-8.2-2.2-1 0-2 .1-3 .3-.2-3-1.3-5.8-3.1-7.9-2.4-2.9-6.1-4.8-10.2-4.8-5.7 0-10.6 3.6-12.5 8.6l-.3.9c-.3 1.2-.6 2.4-.6 3.6-.2-.2-.3-.4-.5-.5-2.6-2.7-6.2-4.4-10.2-4.5h-.4c-3.6 0-6.9 1.3-9.4 3.4-3.2 2.7-5.3 6.8-5.3 11.3v.5c-1.3-.5-2.8-.8-4.3-.8-5.1 0-9.4 3.3-10.9 7.9-.6 0-1.2 0-1.8.1-9.1.7-16.7 6.5-20.2 14.5v.1c-1.2 2.9-1.9 6.1-1.9 9.4 0 3 .6 6 1.6 8.7.4 1 .8 2 1.4 3 1.4 2.5 3.2 4.7 5.3 6.6 4.2 3.7 9.8 6 15.9 6h116.4c.5 0 1 0 1.5-.1 5.3-.5 9.9-3.5 12.6-7.8 1.5-2.5 2.5-5.5 2.5-8.6-.1-6.3-3.3-11.5-8.2-14.4zm-61.6 9 .3-.3c0 .1 0 .2.1.3h-.4z"/><path id="XMLID_4711_" class="st43" d="M164.4 233.5c-1-1-2.2-2-3.4-2.7-2-1.2-4.3-2-6.7-2.2h-.3c-.5 0-1-.1-1.5-.1-2 0-3.9.4-5.7 1-.3-1.5-.7-3-1.2-4.4-1.9-5.1-5.5-9.4-10.1-12.1-2-1.2-4.2-2.1-6.6-2.7-1.5-.4-3.2-.6-4.8-.7H123c-.4-3.3-1.9-6.3-4-8.7-1.2-1.4-2.6-2.5-4.2-3.4-2.4-1.4-5.2-2.2-8.2-2.2-1 0-2 .1-3 .3-.2-3-1.3-5.8-3.1-7.9-.2-.3-.5-.6-.8-.9-2.4-2.4-5.7-3.9-9.4-3.9-5.7 0-10.6 3.6-12.5 8.6-.5 1.4-.8 2.9-.9 4.5-.2-.2-.3-.4-.5-.5-1.9-1.9-4.2-3.4-6.9-4.1-1.2-.3-2.4-.5-3.7-.5-3.6 0-6.9 1.3-9.4 3.4-3.2 2.7-5.3 6.8-5.3 11.3v.5c-1.3-.5-2.8-.9-4.3-.9-5.1 0-9.4 3.3-10.9 8-13.2.1-23.9 10.8-23.9 24.1 0 3 .6 6 1.6 8.7 3.5 9.1 12.3 15.5 22.5 15.5h116.4c.5 0 1 0 1.5-.1 3.6-.3 6.9-1.8 9.4-4 1.2-1.1 2.3-2.4 3.2-3.8 1.5-2.5 2.5-5.5 2.5-8.6 0-4.5-1.8-8.5-4.7-11.5zm-65 6.2.3-.3c0 .1 0 .2.1.3h-.4z"/><path id="XMLID_4371_" d="M496 345.2c-6 16.2-13.7 31.7-22.7 46.1C428.1 463.8 347.7 512 256 512c-79.4 0-150.3-36.1-197.2-92.8-15-18.1-27.5-38.2-37.1-60 1-.1 1.9-.1 2.9-.1 9.1 0 17.2 3.9 22.9 10.1 2.2 2.5 4.1 5.3 5.4 8.3h.6c3-2.3 6.5-4.1 10.2-5.1 2.6-.7 5.3-1.2 8.1-1.2h.4c1.7 0 3.4.1 5 .4 3.2.5 6.2 1.5 9 2.9 1.7.9 3.3 1.9 4.8 3h.3c2.6-3.4 5.7-6.4 9.2-8.9.1 0 .1-.1.2-.1.2-.2.5-.3.7-.5 2.5-1.7 5.2-3.1 8-4.1 4.5-1.7 9.4-2.6 14.5-2.6 1 0 2 0 2.9.1.5 0 1 .1 1.5.1 2 .2 3.9.6 5.8 1.1 2 .5 4 1.2 5.9 2 .1 0 .1.1.2.1h.1c4.4 1.9 8.4 4.6 11.8 7.9.5.4.9.9 1.4 1.4.7-.9 1.4-1.7 2.1-2.5.1-.1.2-.2.3-.4 2.2-2.4 4.7-4.6 7.4-6.5 3-2.2 6.4-4 9.9-5.3 1.8-.7 3.7-1.3 5.6-1.8l1.5-.3c2.5-.5 5.1-.9 7.7-1h1.9c2.1 0 4.1.1 6.1.4 2.1.3 4.2.7 6.3 1.3 3.8 1.1 7.5 2.6 10.8 4.6 5.2 3 9.8 7.1 13.4 11.9.8 1 1.5 2.1 2.2 3.2h2.4c2.3-1.8 4.9-3.2 7.6-4.3.4-.2.9-.3 1.3-.5 2.3-.8 4.8-1.3 7.3-1.5.5 0 1.1-.1 1.6-.1h.8c2.8 0 5.6.4 8.2 1.1 1 .3 2.1.6 3 1 1.5-1.3 3.2-2.5 4.9-3.5.2-.1.3-.2.5-.3.2-.1.5-.2.7-.4 2.9-1.5 6.1-2.6 9.5-3.1.4-.1.9-.1 1.3-.2 8.5-.9 16.7 1.7 22.9 6.7 1.8 1.5 3.4 3.1 4.8 4.9h5c4.1-3.3 9-5.7 14.5-6.6h.4c.9-.1 1.7-.2 2.6-.3 6.1-.4 12 1 17.1 3.8 2.1-3.9 4.8-7.4 8-10.4l.6-.6c1.7-1.5 3.5-2.9 5.4-4.1.9-.6 1.9-1.2 2.9-1.7s1.9-1 3-1.4c3.1-1.4 6.5-2.3 10-2.9h.4c3.4-.5 6.7-.5 9.9-.2 1.6.2 3.3.4 4.8.8.5.1 1.1.3 1.6.4 5.3 1.4 10.2 3.9 14.4 7.2 5.2-9.3 13.5-16.7 23.8-20.7.1 0 .1 0 .2-.1 2.4-.9 4.9-1.6 7.5-2.1l1.8-.3c8.4-1.3 16.6-.2 23.9 2.7 5.6 2.2 10.7 5.5 15 9.7 1.3 1.2 2.5 2.6 3.7 4 3.6-4.3 8.4-7.6 14-9.4z" style="fill:#81a861"/><g id="XMLID_4694_"><path id="XMLID_4709_" class="st313" d="M260.7 128.9c0 9.1 9.2 19.5 6.5 27.7-2.8 8.5-16.4 11.5-21.5 18.6-5.2 7.1-3.9 21-11 26.2-7.1 5.1-19.9-.4-28.3 2.4-.2.1-.5.2-.7.3-7.9 3.1-14.8 14.5-23.7 14.5-9.1 0-16.1-12-24.3-14.7-8.5-2.8-21.3 2.8-28.3-2.4-7.1-5.2-5.8-19.1-11-26.2-5.1-7.1-18.8-10.1-21.5-18.6-2.7-8.2 6.5-18.6 6.5-27.7 0-9.1-9.2-19.5-6.5-27.7 2.8-8.5 16.4-11.5 21.5-18.6 5.2-7.1 3.9-21 11-26.2 7.1-5.1 19.9.4 28.3-2.4 8.2-2.7 15.3-14.7 24.3-14.7 8.8 0 15.7 11.4 23.7 14.5.2.1.4.2.7.3 8.5 2.8 21.3-2.8 28.3 2.4 7.1 5.2 5.8 19.1 11 26.2 5.1 7.1 18.8 10.1 21.5 18.6 2.7 8-6.5 18.4-6.5 27.5z"/><path id="XMLID_4708_" class="st274" d="M260.7 128.9c0 9.1 9.2 19.5 6.5 27.7-2.8 8.5-16.4 11.5-21.5 18.6-5.2 7.1-3.9 21-11 26.2-7.1 5.1-19.9-.4-28.3 2.4-.2.1-.5.2-.7.3-.2-.1-.4-.2-.7-.3-8.5-2.8-21.3 2.8-28.3-2.4-7.1-5.2-5.8-19.1-11-26.2-5.1-7.1-18.8-10.1-21.5-18.6-2.7-8.2 6.5-18.6 6.5-27.7 0-9.1-9.2-19.5-6.5-27.7 2.8-8.5 16.4-11.5 21.5-18.6 5.2-7.1 3.9-21 11-26.2 7.1-5.1 19.9.4 28.3-2.4.2-.1.5-.2.7-.3.2.1.4.2.7.3 8.5 2.8 21.3-2.8 28.3 2.4 7.1 5.2 5.8 19.1 11 26.2 5.1 7.1 18.8 10.1 21.5 18.6 2.7 8.2-6.5 18.6-6.5 27.7z"/><path id="XMLID_4707_" class="st154" d="M375.1 99.5c0 9.3 9.4 20 6.7 28.4-2.8 8.7-16.8 11.8-22.1 19.1-5.3 7.3-4 21.6-11.3 26.9-7.3 5.3-20.4-.4-29.1 2.5-.2.1-.5.2-.7.3-8.1 3.2-15.2 14.8-24.3 14.8-9.3 0-16.6-12.4-25-15.1-8.7-2.8-21.8 2.8-29.1-2.5-7.3-5.3-6-19.6-11.3-26.9-5.3-7.3-19.3-10.4-22.1-19.1-2.7-8.4 6.7-19.1 6.7-28.4 0-9.3-9.4-20-6.7-28.4 2.8-8.7 16.8-11.8 22.1-19.1 5.3-7.3 4-21.6 11.3-26.9 7.3-5.3 20.4.4 29.1-2.5 8.4-2.7 15.7-15.1 25-15.1 9.1 0 16.2 11.7 24.3 14.8.2.1.5.2.7.3 8.7 2.8 21.8-2.8 29.1 2.5 7.3 5.3 6 19.6 11.3 26.9 5.3 7.2 19.3 10.3 22.1 19 2.7 8.4-6.7 19.1-6.7 28.5z"/><path id="XMLID_4705_" class="st314" d="M375.1 99.5c0 9.3 9.4 20 6.7 28.4-2.8 8.7-16.8 11.8-22.1 19.1-5.3 7.3-4 21.6-11.3 26.9-7.3 5.3-20.4-.4-29.1 2.5-.2.1-.5.2-.7.3-.2-.1-.5-.2-.7-.3-8.7-2.8-21.8 2.8-29.1-2.5-7.3-5.3-6-19.6-11.3-26.9-5.3-7.3-19.3-10.4-22.1-19.1-2.7-8.4 6.7-19.1 6.7-28.4 0-9.3-9.4-20-6.7-28.4 2.8-8.7 16.8-11.8 22.1-19.1 5.3-7.3 4-21.6 11.3-26.9 7.3-5.3 20.4.4 29.1-2.5.2-.1.5-.2.7-.3.2.1.5.2.7.3 8.7 2.8 21.8-2.8 29.1 2.5 7.3 5.3 6 19.6 11.3 26.9 5.3 7.2 19.3 10.3 22.1 19 2.7 8.4-6.7 19.1-6.7 28.5z"/><path id="XMLID_4704_" class="st154" d="M425.2 218.5c0 9.3 9.4 20 6.7 28.4-2.8 8.7-16.8 11.8-22.1 19.1-5.3 7.3-4 21.6-11.3 26.9-7.3 5.3-20.4-.4-29.1 2.5-.2.1-.5.2-.7.3-8.1 3.2-15.2 14.8-24.3 14.8-9.3 0-16.6-12.4-25-15.1-8.7-2.8-21.8 2.8-29.1-2.5-7.3-5.3-6-19.6-11.3-26.9-5.3-7.3-19.3-10.4-22.1-19.1-2.7-8.4 6.7-19.1 6.7-28.4 0-9.3-9.4-20-6.7-28.4 2.8-8.7 16.8-11.8 22.1-19.1 5.3-7.3 4-21.6 11.3-26.9 7.3-5.3 20.4.4 29.1-2.5 8.4-2.7 15.7-15.1 25-15.1 9.1 0 16.2 11.7 24.3 14.8.2.1.5.2.7.3 8.7 2.8 21.8-2.8 29.1 2.5 7.3 5.3 6 19.6 11.3 26.9 5.3 7.3 19.3 10.4 22.1 19.1 2.7 8.4-6.7 19.1-6.7 28.4z"/><path id="XMLID_4703_" class="st314" d="M425.2 218.5c0 9.3 9.4 20 6.7 28.4-2.8 8.7-16.8 11.8-22.1 19.1-5.3 7.3-4 21.6-11.3 26.9-7.3 5.3-20.4-.4-29.1 2.5-.2.1-.5.2-.7.3-.2-.1-.5-.2-.7-.3-8.7-2.8-21.8 2.8-29.1-2.5-7.3-5.3-6-19.6-11.3-26.9-5.3-7.3-19.3-10.4-22.1-19.1-2.7-8.4 6.7-19.1 6.7-28.4 0-9.3-9.4-20-6.7-28.4 2.8-8.7 16.8-11.8 22.1-19.1 5.3-7.3 4-21.6 11.3-26.9 7.3-5.3 20.4.4 29.1-2.5.2-.1.5-.2.7-.3.2.1.5.2.7.3 8.7 2.8 21.8-2.8 29.1 2.5 7.3 5.3 6 19.6 11.3 26.9 5.3 7.3 19.3 10.4 22.1 19.1 2.7 8.4-6.7 19.1-6.7 28.4z"/><path id="XMLID_4702_" class="st313" d="M212.6 240.7c0 7.5 7.6 16.2 5.4 23-2.3 7-13.6 9.5-17.8 15.4-4.3 5.9-3.2 17.4-9.1 21.7-5.9 4.3-16.5-.3-23.5 2-.2.1-.4.1-.6.2-6.6 2.5-12.3 12-19.6 12-7.5 0-13.4-10-20.2-12.2-7-2.3-17.6 2.3-23.5-2-5.9-4.3-4.8-15.8-9.1-21.7-4.3-5.9-15.6-8.4-17.8-15.4-2.2-6.8 5.4-15.4 5.4-23 0-7.5-7.6-16.2-5.4-23 2.3-7 13.6-9.5 17.8-15.4 4.3-5.9 3.2-17.4 9.1-21.7 5.9-4.3 16.5.3 23.5-2 6.8-2.2 12.6-12.2 20.2-12.2 7.3 0 13.1 9.4 19.6 12 .2.1.4.1.6.2 7 2.3 17.6-2.3 23.5 2 5.9 4.3 4.8 15.8 9.1 21.7 4.3 5.9 15.6 8.4 17.8 15.4 2.2 6.8-5.4 15.5-5.4 23z"/><path id="XMLID_4701_" class="st274" d="M212.6 240.7c0 7.5 7.6 16.2 5.4 23-2.3 7-13.6 9.5-17.8 15.4-4.3 5.9-3.2 17.4-9.1 21.7-5.9 4.3-16.5-.3-23.5 2-.2.1-.4.1-.6.2-.2-.1-.4-.1-.6-.2-7-2.3-17.6 2.3-23.5-2-5.9-4.3-4.8-15.8-9.1-21.7-4.3-5.9-15.6-8.4-17.9-15.4-2.2-6.8 5.4-15.4 5.4-23 0-7.5-7.6-16.2-5.4-23 2.3-7 13.6-9.5 17.9-15.4 4.3-5.9 3.2-17.4 9.1-21.7 5.9-4.3 16.5.3 23.5-2 .2-.1.4-.1.6-.2.2.1.4.1.6.2 7 2.3 17.6-2.3 23.5 2 5.9 4.3 4.8 15.8 9.1 21.7 4.3 5.9 15.6 8.4 17.8 15.4 2.2 6.8-5.4 15.5-5.4 23z"/><path id="XMLID_4700_" class="st313" d="M314.8 240.7c0 7.5 7.6 16.2 5.4 23-2.3 7-13.6 9.5-17.8 15.4-4.3 5.9-3.2 17.4-9.1 21.7-5.9 4.3-16.5-.3-23.5 2-.2.1-.4.1-.6.2-6.6 2.5-12.3 12-19.6 12-7.5 0-13.4-10-20.2-12.2-7-2.3-17.6 2.3-23.5-2-5.9-4.3-4.8-15.8-9.1-21.7-4.3-5.9-15.6-8.4-17.8-15.4-2.2-6.8 5.4-15.4 5.4-23 0-7.5-7.6-16.2-5.4-23 2.3-7 13.6-9.5 17.8-15.4 4.3-5.9 3.2-17.4 9.1-21.7 5.9-4.3 16.5.3 23.5-2 6.8-2.2 12.6-12.2 20.2-12.2 7.3 0 13.1 9.4 19.6 12 .2.1.4.1.6.2 7 2.3 17.6-2.3 23.5 2 5.9 4.3 4.8 15.8 9.1 21.7 4.3 5.9 15.6 8.4 17.8 15.4 2.2 6.8-5.4 15.5-5.4 23z"/><path id="XMLID_4699_" class="st274" d="M314.8 240.7c0 7.5 7.6 16.2 5.4 23-2.3 7-13.6 9.5-17.8 15.4-4.3 5.9-3.2 17.4-9.1 21.7-5.9 4.3-16.5-.3-23.5 2-.2.1-.4.1-.6.2-.2-.1-.4-.1-.6-.2-7-2.3-17.6 2.3-23.5-2-5.9-4.3-4.8-15.8-9.1-21.7-4.3-5.9-15.6-8.4-17.9-15.4-2.2-6.8 5.4-15.4 5.4-23 0-7.5-7.6-16.2-5.4-23 2.3-7 13.6-9.5 17.9-15.4 4.3-5.9 3.2-17.4 9.1-21.7 5.9-4.3 16.5.3 23.5-2 .2-.1.4-.1.6-.2.2.1.4.1.6.2 7 2.3 17.6-2.3 23.5 2 5.9 4.3 4.8 15.8 9.1 21.7 4.3 5.9 15.6 8.4 17.8 15.4 2.2 6.8-5.4 15.5-5.4 23z"/><g id="XMLID_4696_"><path id="XMLID_4698_" d="M392.7 202.4c-1.4 4.1-3.4 7.5-5.7 10.4-7.5 9.2-18.9 12.1-29.7 12.1-4.5 0-8.9-.5-12.9-1.3-6.1 13.8-16.1 25.2-28.8 32.9 7 6.8 18.8 16.5 32 18 8.4 1 16-1.3 23.3-7.1 2.4-1.9 5.9-1.5 7.8.9 1.9 2.4 1.5 5.9-.9 7.8-8.1 6.4-17 9.7-26.4 9.7-1.7 0-3.4-.1-5.1-.3-18.3-2.2-33.7-16-41.1-23.8l-3.7 1.5-26.6 10.9 6.1 199.7h-44.3l4.5-146-67.3-37c-9.1-5-16.9-12.3-22.4-21.1l-2-3.1c-2.7.3-6 .6-9.7.6-12.4 0-28-3.2-33.5-18.1-1-2.9.4-6 3.3-7.1 2.9-1.1 6.1.4 7.1 3.3 3.6 9.8 16.5 11.2 26.1 10.7l-27.2-43.3c-2.4-3.9-1.3-9 2.6-11.4 3.9-2.4 9-1.3 11.5 2.6l19.6 31.2 21.4-28.4c1.8-2.4 5.3-2.9 7.8-1.1 2.4 1.8 2.9 5.3 1.1 7.8l-23.9 31.8 9.9 15.8c4 6.4 9.7 11.8 16.4 15.4l59.8 32.9 3.8-124c-6.8-1.9-15.9-4.9-25.5-9.9-26.5-13.7-44.7-35.4-52.8-62.7-1.3-4.4 1.2-9 5.6-10.3 4.4-1.3 9 1.2 10.3 5.6 3.8 12.7 10 23.7 18.5 33.1 6.5-8 12.9-17.9 12.6-23.1-.2-3 2.2-5.7 5.2-5.8 3.1-.2 5.7 2.2 5.8 5.2.6 10.1-8.9 23.4-15.6 31.4 5.2 4.4 11 8.3 17.5 11.6 6.9 3.6 13.5 6.1 18.9 7.8l1.4-46.7c.2-5.8 4.6-10.5 10.3-11 .4 0 .7-.1 1.1-.1 6.2 0 11.2 4.9 11.4 11.1l1.1 35.2 17.7-11.3c3.9-2.5 6.6-6.3 7.7-10.7l7.2-28.1 21-11c2.7-1.4 6.1-.4 7.5 2.3 1.4 2.7.4 6.1-2.3 7.5l-16.6 8.7-5.9 23.3c-1.8 7.2-6.3 13.3-12.5 17.3l-23.3 14.8 2.7 87.1 24.8-10.2c1.9-.8 3.7-1.7 5.5-2.6 10.9-5.9 19.5-15.2 24.5-26.8l14-31.9c1.8-4.2 6.7-6.1 10.9-4.3 4.2 1.8 6.1 6.7 4.3 10.9l-9.4 21.6c10.6 1.7 27.6 1.7 33.1-14.3.3-.9.8-1.6 1.4-2.2 1.4-1.4 3.6-1.9 5.6-1.2 2.9.7 4.4 3.9 3.4 6.8z" style="fill:#594144"/><path id="XMLID_4697_" d="M257.9 110.2v363.6h-21l4.5-146-67.3-37c-9.1-5-16.9-12.3-22.4-21.1l-2-3.1c-2.7.3-6 .6-9.7.6-12.4 0-28-3.2-33.5-18.1-1-2.9.4-6 3.3-7.1 2.9-1.1 6.1.4 7.1 3.3 3.6 9.8 16.5 11.2 26.1 10.7l-27.2-43.3c-2.4-3.9-1.3-9 2.6-11.5 3.9-2.4 9-1.3 11.5 2.6l19.6 31.2 21.4-28.4c1.8-2.4 5.3-2.9 7.8-1.1 2.4 1.8 2.9 5.3 1.1 7.8l-23.9 31.8 9.9 15.8c4 6.4 9.7 11.8 16.4 15.4l59.8 32.9 3.8-124c-6.8-1.8-15.9-4.9-25.5-9.9-26.5-13.7-44.7-35.4-52.8-62.7-1.3-4.4 1.2-9 5.6-10.3 4.4-1.3 9 1.2 10.3 5.6 3.8 12.7 10 23.7 18.5 33.1 6.5-8 12.9-17.9 12.6-23.1-.2-3 2.2-5.7 5.2-5.8 3.1-.2 5.7 2.2 5.8 5.2.6 10.1-8.9 23.4-15.6 31.4 5.2 4.4 11 8.3 17.5 11.7 6.9 3.6 13.5 6.1 18.9 7.8l1.4-46.7c.1-6.1 4.5-10.7 10.2-11.3z" style="fill:#4c393c"/></g><path id="XMLID_4695_" d="M315.7 256.4c7 6.8 18.8 16.5 32 18 8.4 1 16-1.3 23.3-7.1 2.4-1.9 5.9-1.5 7.8.9 1.9 2.4 1.5 5.9-.9 7.8-8.1 6.4-17 9.7-26.4 9.7-1.7 0-3.4-.1-5.1-.3-18.3-2.2-33.7-16-41.1-23.8l-3.7 1.5c.7-6.6 1.8-13.2 3.2-19.7 10.9-5.9 19.5-15.2 24.5-26.8l14-31.9c1.8-4.2 6.7-6.1 10.9-4.3 4.2 1.8 6.1 6.7 4.3 10.9l-9.4 21.6c10.6 1.7 27.6 1.7 33.1-14.3.3-.9.8-1.6 1.4-2.2l3.4 16.2c-7.5 9.2-18.9 12.1-29.7 12.1-4.5 0-8.9-.5-12.9-1.3-5.9 13.9-16 25.3-28.7 33z" style="fill:#695055"/></g><g id="XMLID_4689_"><g id="XMLID_4691_"><path id="XMLID_4693_" class="st5" d="M183.3 294v-3.2c0-6.6-5.4-12.1-11.9-12-6.4.1-11.5 5.3-11.5 11.7v3.5c0 2.7-1.1 5.3-3.1 7.2-4.5 4.2-7.2 10.2-6.9 16.8.4 11.3 9.6 20.4 20.9 20.9 12.4.5 22.6-9.4 22.6-21.7 0-6.3-2.7-12-7-16-2.1-1.9-3.1-4.5-3.1-7.2z"/><path id="XMLID_4692_" class="st6" d="M167.9 318c-.3-6.6 2.5-12.7 6.9-16.8 2-1.8 3.1-4.5 3.1-7.2v-3.5c0-2.8 1-5.3 2.6-7.3-2.2-2.7-5.5-4.4-9.2-4.4-6.4.1-11.5 5.3-11.5 11.7v3.5c0 2.7-1.1 5.3-3.1 7.2-4.5 4.2-7.2 10.2-6.9 16.8.4 11.3 9.6 20.4 20.9 20.9 3.5.1 6.9-.6 9.9-2-7.2-3.4-12.4-10.6-12.7-18.9z"/></g><path id="XMLID_4690_" class="st52" d="M164.5 268.6c6.1 3.5 9.3 9.3 7.1 13-2.1 3.6-8.7 3.7-14.8.2-6.1-3.5-7.1-13-7.1-13s8.7-3.8 14.8-.2z"/></g><g id="XMLID_4683_"><g id="XMLID_4686_"><path id="XMLID_4688_" class="st5" d="M380.4 235.4v-3.2c0-6.6-5.4-12.1-11.9-12-6.4.1-11.5 5.3-11.5 11.7v3.5c0 2.7-1.1 5.3-3.1 7.2-4.5 4.2-7.2 10.2-6.9 16.8.4 11.3 9.6 20.4 20.9 20.9 12.4.5 22.6-9.4 22.6-21.7 0-6.3-2.7-12-7-16-2-1.9-3.1-4.5-3.1-7.2z"/><path id="XMLID_4687_" class="st6" d="M365 259.4c-.3-6.6 2.5-12.7 6.9-16.8 2-1.8 3.1-4.5 3.1-7.2v-3.5c0-2.8 1-5.3 2.6-7.3-2.2-2.7-5.5-4.4-9.2-4.4-6.4.1-11.5 5.3-11.5 11.7v3.5c0 2.7-1.1 5.3-3.1 7.2-4.5 4.2-7.2 10.2-6.9 16.8.4 11.3 9.6 20.4 20.9 20.9 3.5.1 6.9-.6 9.9-2-7.2-3.4-12.3-10.6-12.7-18.9z"/></g><path id="XMLID_4685_" class="st52" d="M361.6 210c6.1 3.5 9.3 9.3 7.1 13-2.1 3.6-8.7 3.7-14.8.2-6.1-3.5-7.1-13-7.1-13s8.8-3.8 14.8-.2z"/></g><g id="XMLID_4678_"><g id="XMLID_4680_"><path id="XMLID_4682_" class="st5" d="M193.8 152.1v-3.2c0-6.6-5.4-12.1-11.9-12-6.4.1-11.5 5.3-11.5 11.7v3.5c0 2.7-1.1 5.3-3.1 7.2-4.5 4.2-7.2 10.2-6.9 16.8.4 11.3 9.6 20.4 20.9 20.9 12.4.5 22.6-9.4 22.6-21.7 0-6.3-2.7-12-7-16-2-1.9-3.1-4.5-3.1-7.2z"/><path id="XMLID_4681_" class="st6" d="M178.4 176c-.3-6.6 2.5-12.7 6.9-16.8 2-1.8 3.1-4.5 3.1-7.2v-3.5c0-2.8 1-5.3 2.6-7.3-2.2-2.7-5.5-4.4-9.2-4.4-6.4.1-11.5 5.3-11.5 11.7v3.5c0 2.7-1.1 5.3-3.1 7.2-4.5 4.2-7.2 10.2-6.9 16.8.4 11.3 9.6 20.4 20.9 20.9 3.5.1 6.9-.6 9.9-2-7.2-3.3-12.3-10.5-12.7-18.9z"/></g><path id="XMLID_4679_" class="st52" d="M175 126.6c6.1 3.5 9.3 9.3 7.1 13s-8.7 3.7-14.8.2c-6.1-3.5-7.1-13-7.1-13s8.7-3.7 14.8-.2z"/></g><g id="XMLID_4669_"><g id="XMLID_4671_"><path id="XMLID_4676_" class="st5" d="M338.5 116.2V113c0-6.6-5.4-12.1-11.9-12-6.4.1-11.5 5.3-11.5 11.7v3.5c0 2.7-1.1 5.3-3.1 7.2-4.5 4.2-7.2 10.2-6.9 16.8.4 11.3 9.6 20.4 20.9 20.9 12.4.5 22.6-9.4 22.6-21.7 0-6.3-2.7-12-7-16-2-1.9-3.1-4.5-3.1-7.2z"/><path id="XMLID_4674_" class="st6" d="M323.1 140.1c-.3-6.6 2.5-12.7 6.9-16.8 2-1.8 3.1-4.5 3.1-7.2v-3.5c0-2.8 1-5.3 2.6-7.3-2.2-2.7-5.5-4.4-9.2-4.4-6.4.1-11.5 5.3-11.5 11.7v3.5c0 2.7-1.1 5.3-3.1 7.2-4.5 4.2-7.2 10.2-6.9 16.8.4 11.3 9.6 20.4 20.9 20.9 3.5.1 6.9-.6 9.9-2-7.2-3.3-12.3-10.5-12.7-18.9z"/></g><path id="XMLID_4670_" class="st52" d="M319.7 90.7c6.1 3.5 9.3 9.3 7.1 13-2.1 3.6-8.7 3.7-14.8.2-6.1-3.5-7.1-13-7.1-13s8.7-3.7 14.8-.2z"/></g><g id="XMLID_4644_"><g id="XMLID_4650_"><path id="XMLID_4668_" class="st5" d="m330.3 379-.4-3.2c-.7-6.5-6.7-11.4-13.2-10.6-6.3.8-10.8 6.5-10.1 12.9l.4 3.5c.3 2.7-.5 5.4-2.3 7.5-4 4.6-6 10.9-5 17.5 1.7 11.1 11.8 19.2 23 18.4 12.4-.9 21.4-11.9 20.1-24.1-.7-6.3-4-11.6-8.7-15.1-2.1-1.6-3.5-4.1-3.8-6.8z"/><path id="XMLID_4666_" class="st6" d="M317.7 404.5c-1-6.6 1.1-12.8 5-17.5 1.8-2.1 2.6-4.8 2.3-7.5l-.4-3.5c-.3-2.8.4-5.4 1.8-7.6-2.5-2.4-6-3.8-9.6-3.3-6.3.8-10.8 6.5-10.1 12.9l.4 3.5c.3 2.7-.5 5.4-2.3 7.5-4 4.6-6 10.9-5 17.5 1.7 11.1 11.8 19.2 23 18.4 3.5-.3 6.8-1.3 9.6-3-7.6-2.5-13.5-9.1-14.7-17.4z"/></g><path id="XMLID_4649_" class="st52" d="M308.9 355.8c6.4 2.8 10.2 8.3 8.5 12.1-1.7 3.8-8.3 4.7-14.7 1.8-6.4-2.8-8.5-12.1-8.5-12.1s8.3-4.6 14.7-1.8z"/></g><g id="XMLID_4257_"><g id="XMLID_4259_"><path id="XMLID_4643_" class="st5" d="m185.9 375-2.4-2.2c-4.8-4.5-12.5-4.3-16.9.6-4.2 4.8-3.9 12 .8 16.4l2.6 2.4c2 1.8 3.2 4.4 3.2 7.1 0 6.1 2.6 12.2 7.6 16.5 8.6 7.3 21.5 6.8 29.5-1.2 8.8-8.8 8.4-23-.6-31.3-4.6-4.3-10.6-6.2-16.5-5.7-2.7.2-5.3-.8-7.3-2.6z"/><path id="XMLID_4260_" class="st6" d="M193.1 402.5c-5.1-4.3-7.6-10.4-7.6-16.5 0-2.7-1.2-5.3-3.2-7.1l-2.6-2.4c-2-1.9-3.3-4.3-3.6-6.9-3.5-.2-7 1-9.4 3.8-4.2 4.8-3.9 12 .8 16.4l2.6 2.4c2 1.8 3.2 4.4 3.2 7.1 0 6.1 2.6 12.2 7.6 16.5 8.6 7.3 21.5 6.8 29.5-1.2 2.5-2.5 4.3-5.5 5.3-8.6-7.5 3.1-16.3 2-22.6-3.5z"/></g><path id="XMLID_4258_" class="st52" d="M154.5 371.5c6.7-2.1 13.1-.5 14.4 3.6 1.2 4-3.2 8.9-9.9 11-6.7 2.1-14.4-3.6-14.4-3.6s3.2-8.9 9.9-11z"/></g><path id="XMLID_4286_" d="M473.3 391.3C428.1 463.8 347.7 512 256 512c-79.4 0-150.3-36.1-197.2-92.8 4-1.9 8.4-3 13.1-3.1h.4c3 0 5.8.4 8.5 1.2 2.1.6 4 1.4 5.9 2.4 1.5.8 3 1.7 4.3 2.8h.3c1.4-1.9 3-3.7 4.8-5.3 1.4-1.4 3-2.6 4.6-3.7.2-.2.5-.3.7-.5 6.5-4.3 14.2-6.8 22.5-6.8h1.6c1 0 1.9.1 2.8.2 2 .2 3.9.6 5.8 1.1 2.1.5 4.2 1.2 6.1 2.1h.1c2.1.9 4.1 2 6 3.3 1.9 1.2 3.7 2.6 5.3 4.2.4.4.9.8 1.3 1.2l.3.3.3.3c.1-.2.3-.4.4-.6.1-.1.2-.3.4-.4.1-.1.2-.3.4-.5l.3-.3c.6-.7 1.3-1.5 2-2.2 4-4.2 8.9-7.6 14.3-10 .8-.4 1.7-.7 2.6-1 2.1-.8 4.3-1.4 6.5-1.9 2.5-.5 5.1-.9 7.7-1h3.7c7.6.3 14.6 2.4 20.8 5.9.2.1.4.2.5.3.6.3 1.1.7 1.7 1 3.8 2.4 7.1 5.4 10 8.8.6.7 1.2 1.4 1.7 2.1.8 1 1.5 2.1 2.2 3.2h2.4c2.3-1.7 4.8-3.2 7.5-4.2h.1c1-.4 2-.7 3.1-1 1.8-.5 3.6-.8 5.5-1 .5 0 1.1-.1 1.6-.1h.8c2.8 0 5.4.4 7.9 1.1.1 0 .2 0 .2.1 1 .3 2.1.6 3 1 .4-.4.9-.7 1.3-1.1 1.3-1 2.7-1.9 4.1-2.7.2-.1.5-.2.7-.4 0 0 .1 0 .1-.1 2.9-1.5 6-2.5 9.4-3 .9-.1 1.8-.2 2.6-.3 7.8-.5 15.2 1.9 21.1 6.5.2.1.3.2.5.4 1.8 1.5 3.4 3.1 4.8 4.9h5c.1 0 .1-.1.2-.1 2.7-2.2 5.8-3.9 9.2-5.1 1.1-.4 2.3-.7 3.5-1 .6-.1 1.2-.2 1.7-.3.1 0 .3-.1.4-.1 4.5-.7 8.8-.4 12.9.8.7.2 1.4.4 2 .6 1.6.6 3.2 1.3 4.7 2.1l1.2-2.1c1.9-3.1 4.1-5.9 6.7-8.3l.6-.6c2.1-1.9 4.4-3.6 6.9-5.1 3.6-2.1 7.5-3.6 11.7-4.5.9-.2 1.7-.4 2.6-.5.1 0 .2 0 .4-.1 3.2-.5 6.4-.5 9.5-.2h.5c2.1.2 4.2.6 6.2 1.1.1 0 .1 0 .2.1 5.3 1.4 10.2 3.9 14.4 7.2 5.2-9.3 13.6-16.8 23.9-20.7 2.4-.9 4.9-1.6 7.5-2.1l1.8-.3c8.4-1.3 16.6-.2 23.9 2.7 3.9 1.3 7.3 3.2 10.3 5.4z" style="fill:#8cbd69"/></g></g></svg>